<svg width="40" height="31" viewBox="0 0 40 31" fill="none" xmlns="http://www.w3.org/2000/svg">
<path d="M37.9921 0.870339C37.8218 0.85279 37.6502 0.85279 37.4798 0.870339H2.4952C2.27098 0.873794 2.04824 0.907415 1.83299 0.970295L19.8876 18.9499L37.9921 0.870339Z" fill="#EFEDE7"/>
<path d="M39.8413 2.60708L21.6493 20.7241C21.1811 21.1895 20.5477 21.4508 19.8876 21.4508C19.2274 21.4508 18.594 21.1895 18.1258 20.7241L0.0962507 2.74452C0.0408243 2.94823 0.0114363 3.15814 0.00878906 3.36924V28.3583C0.00878906 29.021 0.272066 29.6566 0.740701 30.1253C1.20934 30.5939 1.84494 30.8572 2.50769 30.8572H37.4923C38.1551 30.8572 38.7907 30.5939 39.2593 30.1253C39.728 29.6566 39.9912 29.021 39.9912 28.3583V3.36924C39.9813 3.10893 39.9307 2.85176 39.8413 2.60708ZM4.21944 28.3583H2.4827V26.5716L11.5662 17.563L13.3279 19.3247L4.21944 28.3583ZM37.4673 28.3583H35.7181L26.6096 19.3247L28.3713 17.563L37.4549 26.5716L37.4673 28.3583Z" fill="#EFEDE7"/>
</svg>
