<svg width="36" height="36" viewBox="0 0 36 36" fill="none" xmlns="http://www.w3.org/2000/svg">
<path d="M31.6111 0.857178C32.6425 0.857178 33.6317 1.2669 34.361 1.99621C35.0903 2.72551 35.5 3.71467 35.5 4.74607V31.9683C35.5 32.9997 35.0903 33.9888 34.361 34.7181C33.6317 35.4475 32.6425 35.8572 31.6111 35.8572H4.38889C3.35749 35.8572 2.36834 35.4475 1.63903 34.7181C0.909721 33.9888 0.5 32.9997 0.5 31.9683V4.74607C0.5 3.71467 0.909721 2.72551 1.63903 1.99621C2.36834 1.2669 3.35749 0.857178 4.38889 0.857178H31.6111ZM30.6389 30.9961V20.6905C30.6389 19.0093 29.971 17.397 28.7823 16.2082C27.5935 15.0195 25.9812 14.3516 24.3 14.3516C22.6472 14.3516 20.7222 15.3627 19.7889 16.8794V14.7211H14.3639V30.9961H19.7889V21.41C19.7889 19.9127 20.9944 18.6877 22.4917 18.6877C23.2136 18.6877 23.9061 18.9745 24.4166 19.4851C24.9271 19.9956 25.2139 20.688 25.2139 21.41V30.9961H30.6389ZM8.04444 11.6683C8.91082 11.6683 9.74171 11.3241 10.3543 10.7115C10.9669 10.0989 11.3111 9.268 11.3111 8.40162C11.3111 6.59329 9.85278 5.11551 8.04444 5.11551C7.17291 5.11551 6.33708 5.46173 5.72081 6.07799C5.10455 6.69426 4.75833 7.53009 4.75833 8.40162C4.75833 10.21 6.23611 11.6683 8.04444 11.6683ZM10.7472 30.9961V14.7211H5.36111V30.9961H10.7472Z" fill="#EFEDE7"/>
</svg>
