<svg width="39" height="38" viewBox="0 0 39 38" fill="none" xmlns="http://www.w3.org/2000/svg">
<path d="M19.5 0.857178C17.0102 0.857178 14.5448 1.34757 12.2446 2.30037C9.94435 3.25316 7.85429 4.64969 6.09376 6.41023C2.5382 9.96579 0.54071 14.7882 0.54071 19.8165C0.54071 28.1965 5.98203 35.3062 13.5089 37.8278C14.4568 37.9795 14.7602 37.3917 14.7602 36.8798V33.6757C9.50846 34.8133 8.38986 31.1352 8.38986 31.1352C7.51773 28.9359 6.28538 28.3482 6.28538 28.3482C4.56008 27.1727 6.41809 27.2106 6.41809 27.2106C8.31402 27.3433 9.31887 29.1634 9.31887 29.1634C10.9683 32.0452 13.7553 31.1921 14.836 30.737C15.0067 29.5047 15.4996 28.6705 16.0305 28.1965C11.8215 27.7225 7.40398 26.092 7.40398 18.8685C7.40398 16.764 8.12443 15.0767 9.35678 13.7305C9.16719 13.2566 8.50362 11.2848 9.54638 8.72529C9.54638 8.72529 11.139 8.21339 14.7602 10.6591C16.258 10.242 17.8885 10.0335 19.5 10.0335C21.1116 10.0335 22.742 10.242 24.2398 10.6591C27.8611 8.21339 29.4536 8.72529 29.4536 8.72529C30.4964 11.2848 29.8328 13.2566 29.6432 13.7305C30.8756 15.0767 31.596 16.764 31.596 18.8685C31.596 26.111 27.1596 27.7035 22.9316 28.1775C23.6142 28.7653 24.2398 29.9218 24.2398 31.685V36.8798C24.2398 37.3917 24.5432 37.9984 25.5101 37.8278C33.0369 35.2873 38.4593 28.1965 38.4593 19.8165C38.4593 17.3267 37.9689 14.8613 37.0161 12.5611C36.0633 10.2608 34.6668 8.17076 32.9063 6.41023C31.1457 4.64969 29.0557 3.25316 26.7554 2.30037C24.4552 1.34757 21.9898 0.857178 19.5 0.857178Z" fill="#EFEDE7"/>
</svg>
