<svg width="102" height="73" viewBox="0 0 102 73" fill="none" xmlns="http://www.w3.org/2000/svg">
<rect x="1" y="1" width="100" height="70.8571" rx="5.71429" fill="#CFA576" stroke="black" stroke-width="1.14286"/>
<path d="M1 12.4286H101" stroke="black" stroke-width="1.14286"/>
<circle cx="50.4286" cy="6.42854" r="3.71429" stroke="black" stroke-width="1.14286"/>
<circle cx="35" cy="6.42854" r="3.71429" stroke="black" stroke-width="1.14286"/>
<circle cx="65.8571" cy="6.42854" r="3.71429" stroke="black" stroke-width="1.14286"/>
<path d="M6.14288 7.28577H21.5715" stroke="black" stroke-width="1.14286" stroke-linecap="round"/>
<path d="M80.4286 7.28577H95.8572" stroke="black" stroke-width="1.14286" stroke-linecap="round"/>
<path d="M50.7954 40.0901L30.4943 49.7331C29.6434 50.1373 29.6193 51.3395 30.4534 51.7773L50.7545 62.4354C51.0871 62.6101 51.4843 62.6101 51.817 62.4354L72.1181 51.7773C72.9521 51.3395 72.9281 50.1373 72.0772 49.7331L51.7761 40.0901C51.4658 39.9427 51.1057 39.9427 50.7954 40.0901Z" fill="#CFA576" stroke="black" stroke-width="1.14286"/>
<path d="M50.7954 31.5187L30.4943 41.1617C29.6434 41.5659 29.6193 42.7681 30.4534 43.2059L50.7545 53.864C51.0871 54.0386 51.4843 54.0386 51.817 53.864L72.1181 43.2059C72.9521 42.7681 72.9281 41.5659 72.0772 41.1617L51.7761 31.5187C51.4658 31.3713 51.1057 31.3713 50.7954 31.5187Z" fill="#CFA576" stroke="black" stroke-width="1.14286"/>
<path d="M50.7954 22.9473L30.4943 32.5903C29.6434 32.9945 29.6193 34.1966 30.4534 34.6345L50.7545 45.2926C51.0871 45.4672 51.4843 45.4672 51.817 45.2926L72.1181 34.6345C72.9521 34.1966 72.9281 32.9945 72.0772 32.5903L51.7761 22.9473C51.4658 22.7999 51.1057 22.7999 50.7954 22.9473Z" fill="#CFA576" stroke="black" stroke-width="1.14286"/>
</svg>
