<svg width="762" height="407" viewBox="0 0 762 407" fill="none" xmlns="http://www.w3.org/2000/svg">
<path d="M484.87 102.836H163.972C159.308 102.836 155.527 106.617 155.527 111.281V347.732C155.527 352.396 159.308 356.176 163.972 356.176H484.87C489.533 356.176 493.314 352.396 493.314 347.732V111.281C493.314 106.617 489.533 102.836 484.87 102.836Z" fill="#F2F2F2" stroke="black" stroke-width="1.68894"/>
<path d="M466.502 121.414H184.028C180.413 121.414 177.483 124.345 177.483 127.959V317.542C177.483 321.157 180.413 324.087 184.028 324.087H466.502C470.117 324.087 473.047 321.157 473.047 317.542V127.959C473.047 124.345 470.117 121.414 466.502 121.414Z" fill="#CFA576" stroke="black" stroke-width="1.30892"/>
<path d="M362.422 396.711H286.42C284.088 396.711 282.197 398.601 282.197 400.933C282.197 403.265 284.088 405.155 286.42 405.155H362.422C364.754 405.155 366.644 403.265 366.644 400.933C366.644 398.601 364.754 396.711 362.422 396.711Z" fill="#F2F2F2" stroke="black" stroke-width="1.30892"/>
<path d="M337.088 335.909H311.754C309.422 335.909 307.531 337.8 307.531 340.132C307.531 342.463 309.422 344.354 311.754 344.354H337.088C339.42 344.354 341.31 342.463 341.31 340.132C341.31 337.8 339.42 335.909 337.088 335.909Z" fill="#F2F2F2" stroke="black" stroke-width="1.30892"/>
<path d="M294.086 396.5L306.586 356.5H341.411L353.911 396.5H294.086Z" fill="#F2F2F2"/>
<path d="M306.687 356.176L294.02 396.711M341.31 356.176L353.977 396.711M306.5 356.5H341.5M294 396.5H354" stroke="black"/>
<path d="M667.274 172.082H346.377C341.713 172.082 337.932 175.863 337.932 180.527V383.199C337.932 387.863 341.713 391.644 346.377 391.644H667.274C671.938 391.644 675.719 387.863 675.719 383.199V180.527C675.719 175.863 671.938 172.082 667.274 172.082Z" fill="#F2F2F2" stroke="black" stroke-width="1.68894"/>
<path d="M659.284 188.972H354.367C349.954 188.972 346.377 192.549 346.377 196.962V366.765C346.377 371.177 349.954 374.755 354.367 374.755H659.284C663.697 374.755 667.274 371.177 667.274 366.765V196.962C667.274 192.549 663.697 188.972 659.284 188.972Z" fill="#64644B" stroke="black" stroke-width="1.59799"/>
<path d="M321.043 391.644H486.558H528.782H695.142V396.711C695.142 401.375 691.361 405.156 686.697 405.156H329.487C324.823 405.156 321.043 401.375 321.043 396.711V391.644Z" fill="#F2F2F2"/>
<path d="M528.782 391.644C528.782 394.442 526.513 396.711 523.715 396.711H491.625C488.827 396.711 486.558 394.442 486.558 391.644M321.043 391.644H695.142V396.711C695.142 401.375 691.361 405.156 686.697 405.156H329.487C324.823 405.156 321.043 401.375 321.043 396.711V391.644Z" stroke="black" stroke-width="1.68894" stroke-linecap="round"/>
<path d="M142.016 286.93H91.3475C86.6836 286.93 82.9028 290.711 82.9028 295.375V298.753V393.333V396.711C82.9028 401.375 86.6837 405.156 91.3475 405.156H142.016C146.679 405.156 150.46 401.375 150.46 396.711V393.333V298.753V295.375C150.46 290.711 146.679 286.93 142.016 286.93Z" fill="#F2F2F2" stroke="black" stroke-width="1.68894"/>
<path d="M150.46 298.753H82.9028V393.333H150.46V298.753Z" fill="#463C21"/>
<path d="M113.304 398.4C113.304 400.265 114.816 401.778 116.682 401.778C118.547 401.778 120.059 400.265 120.059 398.4C120.059 396.534 118.547 395.022 116.682 395.022C114.816 395.022 113.304 396.534 113.304 398.4Z" fill="black"/>
<path d="M96.4143 293.686H138.638" stroke="black" stroke-width="1.68894" stroke-linecap="round"/>
<path d="M98.1032 346.043C98.1032 350.707 101.884 354.487 106.548 354.487C111.212 354.487 114.993 350.707 114.993 346.043C114.993 341.379 111.212 337.598 106.548 337.598C101.884 337.598 98.1032 341.379 98.1032 346.043Z" fill="#CFA576"/>
<path d="M118.37 340.976H135.26" stroke="#E6E1D3" stroke-width="2.5334" stroke-linecap="round"/>
<path d="M118.37 346.043H131.882" stroke="#E6E1D3" stroke-width="2.5334" stroke-linecap="round"/>
<path d="M118.37 351.11H128.504" stroke="#E6E1D3" stroke-width="2.5334" stroke-linecap="round"/>
<path d="M760.166 406C760.166 398.161 757.052 390.643 751.509 385.1C745.966 379.558 738.448 376.444 730.61 376.444C722.771 376.444 715.253 379.558 709.71 385.1C704.167 390.643 701.053 398.161 701.053 406L760.166 406Z" fill="#F2F2F2"/>
<path d="M730.61 377.288V380.666M760.166 406C760.166 398.161 757.052 390.643 751.509 385.1C745.966 379.558 738.448 376.444 730.61 376.444C722.771 376.444 715.253 379.558 709.71 385.1C704.167 390.643 701.053 398.161 701.053 406L760.166 406Z" stroke="black" stroke-width="1.68894" stroke-linecap="round"/>
<path d="M77.8361 219.373H1.83398L6.90079 299.711L39.835 311.42L73.6137 299.711L77.8361 219.373Z" fill="#FF686B" stroke="black" stroke-width="1.68894"/>
<path d="M60.9467 246.396H25.4791L26.3235 264.974H54.191L53.3465 281.863L39.835 286.086L26.3235 281.863V274.263" stroke="#F2F2F2" stroke-width="8.44468"/>
<path d="M417.312 1.5H341.31L346.377 81.8385L379.311 93.547L413.09 81.8385L417.312 1.5Z" fill="#70D6FF" stroke="black" stroke-width="1.68894"/>
<path d="M359.888 26.834H399.578L397.045 42.8789M397.045 42.8789H370.022M397.045 42.8789L394.511 63.1462L379.311 69.0574L365.799 63.1462V55.5459" stroke="#F2F2F2" stroke-width="8.44468"/>
<path d="M760.166 219.373H684.164L689.231 299.711L722.165 311.42L755.944 299.711L760.166 219.373Z" fill="#F9DC5C" stroke="black" stroke-width="1.68894"/>
<path d="M747.499 237.951H728.076V264.974L742.432 263.285L739.054 286.93L723.009 289.463" stroke="#F2F2F2" stroke-width="8.44468"/>
<path d="M712.031 234.573L712.876 287.775L701.053 283.552V277.641" stroke="#F2F2F2" stroke-width="8.44468"/>
</svg>
